<svg width="512" height="512" viewBox="0 0 512 512" fill="none" xmlns="http://www.w3.org/2000/svg">
<path d="M346.096 328.22V322.384C346.096 289.864 319.64 263.404 287.12 263.404H237.384C235.544 247.568 222.96 234.984 207.124 233.144V204.048C215.196 202.216 221.252 195.016 221.252 186.4C221.252 176.404 213.12 168.276 203.124 168.276C193.128 168.276 185 176.408 185 186.4C185 195.016 191.056 202.22 199.124 204.048V233.144C183.288 234.984 170.704 247.572 168.864 263.404H119.132C86.608 263.404 60.152 289.86 60.152 322.384V328.22C43 330.212 29.64 344.808 29.64 362.484C29.64 380.16 43 394.752 60.152 396.744V404.852C60.152 437.372 86.608 463.832 119.132 463.832H287.12C319.64 463.832 346.096 437.376 346.096 404.852V396.744C363.248 394.752 376.608 380.16 376.608 362.484C376.608 344.808 363.248 330.212 346.096 328.22Z" fill="#E6E7E8"/>
<path d="M271.01 479H102.99C72.7486 479 48 449.685 48 413.854V316.142C48 280.315 72.7446 251 102.99 251H271.01C301.251 251 326 280.315 326 316.142V413.858C325.996 449.685 301.251 479 271.01 479Z" fill="#6DC9F7"/>
<path d="M271.12 251.408H103.132C72.896 251.408 48.152 276.148 48.152 306.388V318.388C48.152 288.148 72.892 263.408 103.132 263.408H271.12C301.36 263.408 326.1 288.148 326.1 318.388V306.388C326.096 276.148 301.356 251.408 271.12 251.408Z" fill="white"/>
<path d="M103.132 416.34C87.972 416.34 75.644 404.008 75.644 388.852V306.384C75.644 291.224 87.976 278.896 103.132 278.896H271.12C286.28 278.896 298.608 291.228 298.608 306.384V388.852C298.608 404.012 286.276 416.34 271.12 416.34H103.132Z" fill="#FFD7E5"/>
<path d="M48.152 315.968V376.992C31.292 376.992 17.64 363.34 17.64 346.48C17.64 329.62 31.292 315.968 48.152 315.968Z" fill="#0089EF"/>
<path d="M356.612 346.48C356.612 363.34 342.96 376.992 326.1 376.992V315.968C342.956 315.968 356.612 329.62 356.612 346.48Z" fill="#0089EF"/>
<path d="M187.124 220.896C170.264 220.896 156.612 234.548 156.612 251.408H217.64C217.64 234.548 203.984 220.896 187.124 220.896Z" fill="#0089EF"/>
<path d="M187.124 184.532C194.927 184.532 201.252 178.207 201.252 170.404C201.252 162.601 194.927 156.276 187.124 156.276C179.321 156.276 172.996 162.601 172.996 170.404C172.996 178.207 179.321 184.532 187.124 184.532Z" fill="#FA759E"/>
<path d="M131.42 315.356C121.972 315.356 114.24 323.088 114.24 332.536C114.24 341.984 121.972 349.716 131.42 349.716C140.868 349.716 148.6 341.984 148.6 332.536C148.6 323.088 140.872 315.356 131.42 315.356Z" fill="#3A2C60"/>
<path d="M242.832 349.716C252.32 349.716 260.012 342.024 260.012 332.536C260.012 323.048 252.32 315.356 242.832 315.356C233.344 315.356 225.652 323.048 225.652 332.536C225.652 342.024 233.344 349.716 242.832 349.716Z" fill="#3A2C60"/>
<path d="M201.368 369.396C201.16 369.66 196.204 375.88 187.124 375.88C177.876 375.88 173.176 369.784 172.936 369.472C171.64 367.7 169.156 367.3 167.368 368.588C165.576 369.88 165.172 372.38 166.464 374.172C166.748 374.568 173.62 383.88 187.12 383.88C200.276 383.88 207.424 374.64 207.72 374.248C209.048 372.496 208.704 370.012 206.964 368.672C205.232 367.344 202.72 367.656 201.368 369.396V369.396Z" fill="#FA759E"/>
<path d="M330.485 313.962V307.506C330.485 271.526 304.027 242.252 271.504 242.252H221.763C219.923 224.731 207.338 210.808 191.5 208.773V176.582C199.573 174.555 205.63 166.589 205.63 157.056C205.63 145.997 197.497 137 187.5 137C177.503 137 169.374 145.997 169.374 157.056C169.374 166.589 175.431 174.555 183.5 176.582V208.773C167.662 210.808 155.077 224.735 153.237 242.252H103.5C70.9733 242.252 44.5148 271.522 44.5148 307.506V313.962C27.3612 316.166 14 332.31 14 351.871C14 371.427 27.3612 387.572 44.5148 389.776V398.746C44.5148 434.725 70.9733 464 103.5 464H271.504C304.027 464 330.485 434.73 330.485 398.746V389.776C347.639 387.572 361 371.427 361 351.871C361 332.31 347.639 316.166 330.485 313.962ZM177.375 157.061C177.375 150.883 181.919 145.855 187.5 145.855C193.085 145.855 197.629 150.883 197.629 157.061C197.629 163.239 193.085 168.262 187.5 168.262C181.919 168.262 177.375 163.239 177.375 157.061V157.061ZM187.5 217.349C200.757 217.349 211.778 228.174 213.714 242.256H161.29C163.222 228.174 174.243 217.349 187.5 217.349ZM22.0007 351.871C22.0007 337.201 31.7856 325.013 44.5148 322.871V380.871C31.7856 378.725 22.0007 366.537 22.0007 351.871ZM322.484 398.746C322.484 429.844 299.614 455.149 271.504 455.149H103.5C75.3897 455.149 52.5156 429.848 52.5156 398.746V385.629V318.109V307.506C52.5156 276.408 75.3897 251.103 103.5 251.103H156.985H218.015H271.504C299.614 251.103 322.484 276.403 322.484 307.506V318.109V385.624V398.746ZM330.485 380.867V322.866C343.214 325.008 352.999 337.196 352.999 351.867C352.999 366.537 343.214 378.725 330.485 380.867Z" fill="#3A2C60"/>
</svg>
